<svg width="18" height="17" viewBox="0 0 18 17" fill="none" xmlns="http://www.w3.org/2000/svg">
<path d="M16.5789 7.1579H10.4211V1.3421C10.4211 0.600881 9.78483 0 9 0C8.21517 0 7.57895 0.600881 7.57895 1.3421V7.1579H1.42105C0.636226 7.1579 0 7.75878 0 8.5C0 9.24123 0.636226 9.84211 1.42105 9.84211H7.57895V15.6579C7.57895 16.3991 8.21517 17 9 17C9.78483 17 10.4211 16.3991 10.4211 15.6579V9.84211H16.5789C17.3638 9.84211 18 9.24123 18 8.5C18 7.75878 17.3638 7.1579 16.5789 7.1579Z" fill="url(#paint0_linear_21_746)"/>
<defs>
<linearGradient id="paint0_linear_21_746" x1="27.9474" y1="-9.39474" x2="-7.78373" y2="28.4382" gradientUnits="userSpaceOnUse">
<stop stop-color="#21DBD3"/>
<stop offset="1" stop-color="#18A3DC"/>
</linearGradient>
</defs>
</svg>
