<svg width="45" height="45" viewBox="0 0 45 45" fill="none" xmlns="http://www.w3.org/2000/svg">
<circle cx="22.5" cy="22.5" r="22.5" fill="#21DBD3" fill-opacity="0.1"/>
<path d="M31.3328 14.4001C29.6827 13.6354 27.9252 13.072 26.0739 12.75C25.8458 13.1525 25.5775 13.7025 25.4031 14.1452C23.4445 13.8501 21.4992 13.8501 19.5808 14.1452C19.393 13.7025 19.1247 13.1525 18.8967 12.75C17.0453 13.072 15.2879 13.6354 13.6378 14.4001C10.3108 19.4175 9.41192 24.3142 9.85463 29.1303C12.0682 30.7804 14.2012 31.7732 16.3075 32.4305C16.8307 31.7195 17.2868 30.9548 17.6893 30.1633C16.9246 29.8816 16.2001 29.5194 15.516 29.1035C15.7038 28.9693 15.8782 28.8218 16.0526 28.6876C20.2516 30.6463 24.7994 30.6463 28.9448 28.6876C29.1192 28.8352 29.2936 28.9693 29.4814 29.1035C28.7972 29.5194 28.0594 29.8682 27.3081 30.1633C27.7106 30.9548 28.1667 31.7195 28.6899 32.4305C30.7962 31.7732 32.9426 30.7804 35.1428 29.1303C35.666 23.5361 34.2439 18.693 31.3596 14.4001H31.3328ZM18.2527 26.1789C16.9917 26.1789 15.9587 25.0118 15.9587 23.5763C15.9587 22.1409 16.9648 20.9737 18.2527 20.9737C19.5406 20.9737 20.5602 22.1409 20.5467 23.5763C20.5467 24.9984 19.5406 26.1789 18.2527 26.1789ZM26.7179 26.1789C25.4568 26.1789 24.4238 25.0118 24.4238 23.5763C24.4238 22.1409 25.43 20.9737 26.7179 20.9737C28.0057 20.9737 29.0253 22.1409 29.0119 23.5763C29.0119 24.9984 28.0057 26.1789 26.7179 26.1789Z" fill="url(#paint0_linear_618_1710)"/>
<defs>
<linearGradient id="paint0_linear_618_1710" x1="35.2495" y1="12.75" x2="9.74951" y2="32.4214" gradientUnits="userSpaceOnUse">
<stop stop-color="#21DBD3"/>
<stop offset="1" stop-color="#18A3DC"/>
</linearGradient>
</defs>
</svg>
