<svg width="45" height="45" viewBox="0 0 45 45" fill="none" xmlns="http://www.w3.org/2000/svg">
<circle cx="22.5" cy="22.5" r="22.5" fill="#21DBD3" fill-opacity="0.1"/>
<path d="M32.9995 15.3V19.5L22.4995 23.7L11.9995 19.5V15.3C11.9995 15.0215 12.1101 14.7545 12.307 14.5575C12.504 14.3606 12.771 14.25 13.0495 14.25H31.9495C32.228 14.25 32.4951 14.3606 32.692 14.5575C32.8889 14.7545 32.9995 15.0215 32.9995 15.3ZM11.9995 21.7617V30C11.9995 30.2785 12.1101 30.5455 12.307 30.7425C12.504 30.9394 12.771 31.05 13.0495 31.05H31.9495C32.228 31.05 32.4951 30.9394 32.692 30.7425C32.8889 30.5455 32.9995 30.2785 32.9995 30V21.7617L22.4995 25.9617L11.9995 21.7617Z" fill="url(#paint0_linear_618_1707)"/>
<defs>
<linearGradient id="paint0_linear_618_1707" x1="32.9995" y1="14.25" x2="11.9995" y2="31.05" gradientUnits="userSpaceOnUse">
<stop stop-color="#21DBD3"/>
<stop offset="1" stop-color="#18A3DC"/>
</linearGradient>
</defs>
</svg>
