<svg width="48" height="48" viewBox="0 0 48 48" fill="none" xmlns="http://www.w3.org/2000/svg">
<g filter="url(#filter0_f_32_579)">
<path fill-rule="evenodd" clip-rule="evenodd" d="M32.1947 35.0448C32.6004 34.1864 32.8235 33.2494 32.8235 32.2683C32.8235 28.14 28.8731 24.7935 24 24.7935C19.1269 24.7935 15.1765 28.14 15.1765 32.2683C15.1765 33.2494 15.3996 34.1864 15.8052 35.0448H32.1947Z" fill="url(#paint0_linear_32_579)"/>
<circle cx="24" cy="24" r="19.5" stroke="url(#paint1_linear_32_579)"/>
<ellipse cx="23.7057" cy="18.0298" rx="5" ry="5.07463" fill="url(#paint2_linear_32_579)"/>
</g>
<path fill-rule="evenodd" clip-rule="evenodd" d="M32.1947 35.0448C32.6004 34.1864 32.8235 33.2494 32.8235 32.2683C32.8235 28.14 28.8731 24.7935 24 24.7935C19.1269 24.7935 15.1765 28.14 15.1765 32.2683C15.1765 33.2494 15.3996 34.1864 15.8052 35.0448H32.1947Z" fill="url(#paint3_linear_32_579)"/>
<circle cx="24" cy="24" r="19.5" stroke="url(#paint4_linear_32_579)"/>
<ellipse cx="23.7057" cy="18.0298" rx="5" ry="5.07463" fill="url(#paint5_linear_32_579)"/>
<defs>
<filter id="filter0_f_32_579" x="0" y="0" width="48" height="48" filterUnits="userSpaceOnUse" color-interpolation-filters="sRGB">
<feFlood flood-opacity="0" result="BackgroundImageFix"/>
<feBlend mode="normal" in="SourceGraphic" in2="BackgroundImageFix" result="shape"/>
<feGaussianBlur stdDeviation="2" result="effect1_foregroundBlur_32_579"/>
</filter>
<linearGradient id="paint0_linear_32_579" x1="30.9388" y1="24.7999" x2="15.6298" y2="35.4882" gradientUnits="userSpaceOnUse">
<stop stop-color="#21DBD3"/>
<stop offset="1" stop-color="#18A3DC"/>
</linearGradient>
<linearGradient id="paint1_linear_32_579" x1="45.7647" y1="2.20896" x2="3.3902" y2="43.3723" gradientUnits="userSpaceOnUse">
<stop offset="0.0208333" stop-color="#21DBD3"/>
<stop offset="1" stop-color="#18A3DC"/>
</linearGradient>
<linearGradient id="paint2_linear_32_579" x1="23.7057" y1="12.9552" x2="15.7203" y2="35.7025" gradientUnits="userSpaceOnUse">
<stop stop-color="#21DBD3"/>
<stop offset="1" stop-color="#18A3DC"/>
</linearGradient>
<linearGradient id="paint3_linear_32_579" x1="30.9388" y1="24.7999" x2="15.6298" y2="35.4882" gradientUnits="userSpaceOnUse">
<stop stop-color="#21DBD3"/>
<stop offset="1" stop-color="#18A3DC"/>
</linearGradient>
<linearGradient id="paint4_linear_32_579" x1="45.7647" y1="2.20896" x2="3.3902" y2="43.3723" gradientUnits="userSpaceOnUse">
<stop offset="0.0208333" stop-color="#21DBD3"/>
<stop offset="1" stop-color="#18A3DC"/>
</linearGradient>
<linearGradient id="paint5_linear_32_579" x1="23.7057" y1="12.9552" x2="15.7203" y2="35.7025" gradientUnits="userSpaceOnUse">
<stop stop-color="#21DBD3"/>
<stop offset="1" stop-color="#18A3DC"/>
</linearGradient>
</defs>
</svg>
