<svg width="50" height="54" viewBox="0 0 50 54" fill="none" xmlns="http://www.w3.org/2000/svg">
<g filter="url(#filter0_f_254_743)">
<path d="M17.068 32H13.288L4.288 6.8H7.888L15.196 27.824L22.468 6.8H26.104L17.068 32Z" fill="url(#paint0_linear_254_743)"/>
<path d="M36.836 42.468C34.484 42.468 32.468 41.928 30.788 40.848C29.132 39.744 27.968 38.22 27.296 36.276L30.176 34.62C31.136 37.668 33.38 39.192 36.908 39.192C38.612 39.192 39.92 38.844 40.832 38.148C41.768 37.452 42.236 36.504 42.236 35.304C42.236 34.128 41.78 33.228 40.868 32.604C40.052 32.052 38.528 31.416 36.296 30.696L33.884 29.904C33.356 29.688 32.66 29.376 31.796 28.968C30.956 28.536 30.344 28.104 29.96 27.672C28.904 26.52 28.376 25.116 28.376 23.46C28.376 21.252 29.144 19.524 30.68 18.276C32.216 16.98 34.088 16.332 36.296 16.332C38.264 16.332 39.992 16.824 41.48 17.808C42.968 18.792 44.084 20.136 44.828 21.84L42.02 23.46C40.94 20.868 39.032 19.572 36.296 19.572C34.928 19.572 33.824 19.908 32.984 20.58C32.144 21.252 31.724 22.164 31.724 23.316C31.724 24.42 32.12 25.26 32.912 25.836C33.728 26.436 35.096 27.036 37.016 27.636L38.492 28.104C39.308 28.416 39.752 28.584 39.824 28.608C40.592 28.896 41.432 29.292 42.344 29.796C42.992 30.156 43.64 30.708 44.288 31.452C45.128 32.292 45.548 33.552 45.548 35.232C45.548 37.44 44.744 39.204 43.136 40.524C41.504 41.82 39.404 42.468 36.836 42.468Z" fill="url(#paint1_linear_254_743)"/>
</g>
<path d="M17.068 32H13.288L4.288 6.8H7.888L15.196 27.824L22.468 6.8H26.104L17.068 32Z" fill="url(#paint2_linear_254_743)"/>
<path d="M36.836 42.468C34.484 42.468 32.468 41.928 30.788 40.848C29.132 39.744 27.968 38.22 27.296 36.276L30.176 34.62C31.136 37.668 33.38 39.192 36.908 39.192C38.612 39.192 39.92 38.844 40.832 38.148C41.768 37.452 42.236 36.504 42.236 35.304C42.236 34.128 41.78 33.228 40.868 32.604C40.052 32.052 38.528 31.416 36.296 30.696L33.884 29.904C33.356 29.688 32.66 29.376 31.796 28.968C30.956 28.536 30.344 28.104 29.96 27.672C28.904 26.52 28.376 25.116 28.376 23.46C28.376 21.252 29.144 19.524 30.68 18.276C32.216 16.98 34.088 16.332 36.296 16.332C38.264 16.332 39.992 16.824 41.48 17.808C42.968 18.792 44.084 20.136 44.828 21.84L42.02 23.46C40.94 20.868 39.032 19.572 36.296 19.572C34.928 19.572 33.824 19.908 32.984 20.58C32.144 21.252 31.724 22.164 31.724 23.316C31.724 24.42 32.12 25.26 32.912 25.836C33.728 26.436 35.096 27.036 37.016 27.636L38.492 28.104C39.308 28.416 39.752 28.584 39.824 28.608C40.592 28.896 41.432 29.292 42.344 29.796C42.992 30.156 43.64 30.708 44.288 31.452C45.128 32.292 45.548 33.552 45.548 35.232C45.548 37.44 44.744 39.204 43.136 40.524C41.504 41.82 39.404 42.468 36.836 42.468Z" fill="url(#paint3_linear_254_743)"/>
<defs>
<filter id="filter0_f_254_743" x="0.287994" y="2.80005" width="49.26" height="43.668" filterUnits="userSpaceOnUse" color-interpolation-filters="sRGB">
<feFlood flood-opacity="0" result="BackgroundImageFix"/>
<feBlend mode="normal" in="SourceGraphic" in2="BackgroundImageFix" result="shape"/>
<feGaussianBlur stdDeviation="2" result="effect1_foregroundBlur_254_743"/>
</filter>
<linearGradient id="paint0_linear_254_743" x1="27" y1="10" x2="8" y2="44" gradientUnits="userSpaceOnUse">
<stop stop-color="#21DBD3"/>
<stop offset="1" stop-color="#18A3DC"/>
</linearGradient>
<linearGradient id="paint1_linear_254_743" x1="47" y1="4.5" x2="5" y2="42" gradientUnits="userSpaceOnUse">
<stop stop-color="#21DBD3"/>
<stop offset="1" stop-color="#18A3DC"/>
</linearGradient>
<linearGradient id="paint2_linear_254_743" x1="27" y1="10" x2="8" y2="44" gradientUnits="userSpaceOnUse">
<stop stop-color="#21DBD3"/>
<stop offset="1" stop-color="#18A3DC"/>
</linearGradient>
<linearGradient id="paint3_linear_254_743" x1="47" y1="4.5" x2="5" y2="42" gradientUnits="userSpaceOnUse">
<stop stop-color="#21DBD3"/>
<stop offset="1" stop-color="#18A3DC"/>
</linearGradient>
</defs>
</svg>
