<svg width="45" height="45" viewBox="0 0 45 45" fill="none" xmlns="http://www.w3.org/2000/svg">
<circle cx="22.5" cy="22.5" r="22.5" fill="#21DBD3" fill-opacity="0.1"/>
<path d="M24.8952 23.094C24.4152 22.9135 24.4152 22.2243 24.3854 21.7443C24.2654 20.0345 24.8654 17.4243 24.1454 16.3146C23.6357 15.6541 21.1752 15.7146 19.6757 15.8048C19.2552 15.8653 18.7455 15.9546 18.3855 16.1351C18.0255 16.3156 17.6655 16.6151 17.6655 16.8848C17.6655 17.2746 18.566 17.2151 18.8952 17.7248C19.2552 18.2653 19.2552 19.4346 19.2552 20.3945C19.2552 21.5043 19.0748 22.975 18.6255 23.0345C17.9353 23.0643 17.5455 22.374 17.1855 21.8643C16.4655 20.8745 15.7455 19.6438 15.2051 18.4438C14.9353 17.8141 14.7846 17.1239 14.3948 16.8541C13.7948 16.4336 12.7148 16.4039 11.6646 16.4336C10.7046 16.4634 9.32417 16.3434 9.05441 16.9136C8.84417 17.5434 9.29441 18.1434 9.5344 18.6541C10.7641 21.3238 12.0841 23.6643 13.7046 25.8838C15.2051 27.9535 16.6143 29.6037 19.3743 30.4735C20.1548 30.7135 23.5742 31.4037 24.2645 30.4735C24.5045 30.1135 24.4449 29.3032 24.5649 28.7032C24.6849 28.1032 24.8347 27.5033 25.4049 27.4735C25.8849 27.4437 26.1547 27.8632 26.4552 28.1637C26.7854 28.494 27.0551 28.7637 27.2951 29.0642C27.8654 29.6344 28.4654 30.4139 29.1854 30.7144C30.1751 31.1349 31.7053 31.0149 33.1453 30.9544C34.3155 30.9246 35.1555 30.6847 35.2458 29.9944C35.3062 29.4539 34.7053 28.6744 34.3453 28.2242C33.4448 27.1145 33.0253 26.7842 32.0048 25.7638C31.5546 25.3135 30.9844 24.8335 30.9844 24.294C30.9546 23.9638 31.2244 23.6643 31.4644 23.334C32.5146 21.774 33.5648 20.6643 34.5248 19.0438C34.7946 18.5638 35.4253 17.4541 35.1853 16.9136C34.9155 16.3136 33.4151 16.4932 32.4848 16.4932C31.2849 16.4932 29.7249 16.4029 29.4244 16.6429C28.8542 17.0327 28.6142 17.6634 28.3444 18.2634C27.7444 19.6438 26.9342 21.0531 26.0942 22.1033C25.7937 22.4633 25.2244 23.2131 24.8942 23.0931L24.8952 23.094Z" fill="url(#paint0_linear_618_1704)"/>
<defs>
<linearGradient id="paint0_linear_618_1704" x1="35.25" y1="15.75" x2="9" y2="30.75" gradientUnits="userSpaceOnUse">
<stop stop-color="#21DBD3"/>
<stop offset="1" stop-color="#18A3DC"/>
</linearGradient>
</defs>
</svg>
